<?xml version="1.0" encoding="utf-8"?>
<!-- Generator: Adobe Illustrator 16.0.0, SVG Export Plug-In . SVG Version: 6.00 Build 0)  -->
<!DOCTYPE svg PUBLIC "-//W3C//DTD SVG 1.1//EN" "http://www.w3.org/Graphics/SVG/1.1/DTD/svg11.dtd">
<svg version="1.1" id="Capa_1" xmlns="http://www.w3.org/2000/svg" xmlns:xlink="http://www.w3.org/1999/xlink" x="0px" y="0px"
	 width="595.281px" height="841.891px" viewBox="0 0 595.281 841.891" enable-background="new 0 0 595.281 841.891"
	 xml:space="preserve">
<g>
	<g>
		<path fill="#FFFFFF" d="M266.623,343.07c-10.936,0-19.799,8.863-19.799,19.799v116.152c0,10.936,8.863,19.799,19.799,19.799
			c10.936,0,19.799-8.863,19.799-19.799V362.869C286.42,351.933,277.558,343.07,266.623,343.07z"/>
	</g>
</g>
<g>
	<g>
		<path fill="#FFFFFF" d="M205.246,281.695c-10.936,0-19.799,8.862-19.799,19.799v238.911c0,10.936,8.863,19.799,19.799,19.799
			s19.799-8.863,19.799-19.805V301.493C225.045,290.557,216.182,281.695,205.246,281.695z"/>
	</g>
</g>
<g>
	<g>
		<path fill="#FFFFFF" d="M143.21,224.278c-10.936,0-19.799,8.863-19.799,19.799v353.736c0,10.937,8.863,19.799,19.799,19.799
			c10.936,0,19.799-8.862,19.799-19.799V244.077C163.009,233.141,154.146,224.278,143.21,224.278z"/>
	</g>
</g>
<g>
	<g>
		<path fill="#FFFFFF" d="M81.835,281.695c-10.936,0-19.799,8.862-19.799,19.799v238.911c0,10.936,8.863,19.799,19.799,19.799
			c10.936,0,19.799-8.863,19.799-19.805V301.493C101.634,290.557,92.77,281.695,81.835,281.695z"/>
	</g>
</g>
<g>
	<g>
		<path fill="#FFFFFF" d="M19.799,339.11C8.863,339.11,0,347.973,0,358.909v124.072c0,10.936,8.863,19.799,19.799,19.799
			s19.799-8.857,19.799-19.799V358.909C39.598,347.973,30.734,339.11,19.799,339.11z"/>
	</g>
</g>
<g>
	<g>
		<path fill="#FFFFFF" d="M452.07,224.278c-10.936,0-19.799,8.863-19.799,19.799v353.736c0,10.937,8.863,19.799,19.799,19.799
			s19.799-8.862,19.799-19.799V244.077C471.869,233.141,463.005,224.278,452.07,224.278z"/>
	</g>
</g>
<g>
	<g>
		<path fill="#FFFFFF" d="M390.035,281.695c-10.936,0-19.799,8.862-19.799,19.799v238.911c0,10.936,8.863,19.799,19.799,19.799
			s19.799-8.863,19.799-19.805V301.493C409.833,290.557,400.968,281.695,390.035,281.695z"/>
	</g>
</g>
<g>
	<g>
		<path fill="#FFFFFF" d="M328.658,312.713c-10.936,0-19.799,8.862-19.799,19.799V509.38c0,10.936,8.863,19.799,19.799,19.799
			c10.938,0,19.801-8.857,19.801-19.799V332.511C348.457,321.575,339.593,312.713,328.658,312.713z"/>
	</g>
</g>
<g>
	<g>
		<path fill="#FFFFFF" d="M513.445,281.695c-10.936,0-19.799,8.862-19.799,19.799v238.911c0,10.936,8.863,19.799,19.799,19.799
			c10.938,0,19.799-8.863,19.799-19.805V301.493C533.244,290.557,524.382,281.695,513.445,281.695z"/>
	</g>
</g>
<g>
	<g>
		<path fill="#FFFFFF" d="M575.482,339.11c-10.936,0-19.799,8.863-19.799,19.799v124.072c0,10.936,8.863,19.799,19.799,19.799
			s19.799-8.857,19.799-19.799V358.909C595.281,347.973,586.417,339.11,575.482,339.11z"/>
	</g>
</g>
</svg>
